<?xml version="1.0" encoding="iso-8859-1"?>
<!-- Generator: Adobe Illustrator 21.1.0, SVG Export Plug-In . SVG Version: 6.00 Build 0)  -->
<svg version="1.1" id="Layer_1" xmlns="http://www.w3.org/2000/svg" xmlns:xlink="http://www.w3.org/1999/xlink" x="0px" y="0px"
	 viewBox="0 0 100.355 100.352" style="enable-background:new 0 0 100.355 100.352;" xml:space="preserve">
<g>
	<path d="M38.522,47.039c-1.217,0.8-2.596,1.708-4.123,2.908c-0.181,0.131-4.443,3.249-6.188,6.159
		c-1.753,2.925-2.323,7.722-2.347,7.925c-0.049,0.425,0.086,0.851,0.371,1.17s0.692,0.502,1.12,0.502h18.71
		c0.829,0,1.5-0.672,1.5-1.5s-0.671-1.5-1.5-1.5h-16.95c0.284-1.481,0.812-3.624,1.669-5.054c1.187-1.979,4.285-4.479,5.424-5.309
		c1.472-1.156,2.795-2.027,3.963-2.795c3.058-2.012,5.473-3.601,5.473-7.674c0-5.356-4.358-9.714-9.714-9.714
		c-5.358,0-9.718,4.357-9.718,9.714c0,0.829,0.671,1.5,1.5,1.5s1.5-0.671,1.5-1.5c0-3.702,3.014-6.714,6.718-6.714
		c3.702,0,6.714,3.012,6.714,6.714C42.644,44.215,41.653,44.978,38.522,47.039z"/>
	<path d="M64.396,65.877c0.828,0,1.5-0.672,1.5-1.5v-7.072h4.394c0.828,0,1.5-0.672,1.5-1.5s-0.672-1.5-1.5-1.5h-4.394V33.832
		c0-0.665-0.438-1.25-1.075-1.438s-1.324,0.066-1.685,0.624L48.935,54.99c-0.298,0.462-0.32,1.049-0.058,1.531
		s0.768,0.783,1.317,0.783h12.702v7.072C62.896,65.205,63.568,65.877,64.396,65.877z M52.95,54.305l9.946-15.389v15.389H52.95z"/>
	<path d="M98.418,43.315c-0.633-0.534-1.581-0.453-2.113,0.18l-2.635,3.126C91.932,22.622,71.864,3.624,47.429,3.624
		c-25.572,0-46.377,20.804-46.377,46.375c0,25.572,20.805,46.375,46.377,46.375c16.381,0,31.229-8.38,39.717-22.416
		c0.429-0.709,0.202-1.631-0.507-2.06c-0.708-0.43-1.631-0.202-2.06,0.507c-7.94,13.13-21.828,20.969-37.15,20.969
		c-23.918,0-43.377-19.458-43.377-43.375c0-23.917,19.459-43.375,43.377-43.375c22.972,0,41.82,17.952,43.276,40.562l-3.36-2.806
		c-0.638-0.532-1.582-0.445-2.113,0.19c-0.531,0.636-0.446,1.582,0.189,2.113l5.967,4.983c0.281,0.234,0.622,0.349,0.961,0.349
		c0.427,0,0.852-0.182,1.147-0.533l5.102-6.052C99.132,44.796,99.052,43.849,98.418,43.315z"/>
</g>
</svg>
